<?xml version="1.0" standalone="no"?>
<!DOCTYPE svg PUBLIC "-//W3C//DTD SVG 20010904//EN"
 "http://www.w3.org/TR/2001/REC-SVG-20010904/DTD/svg10.dtd">
<svg version="1.0" xmlns="http://www.w3.org/2000/svg"
 width="663.000000pt" height="159.000000pt" viewBox="0 0 663.000000 159.000000"
 preserveAspectRatio="xMidYMid meet">
<metadata>
Created by potrace 1.16, written by Peter Selinger 2001-2019
</metadata>
<g transform="translate(0.000000,159.000000) scale(0.100000,-0.100000)"
fill="#000000" stroke="none">
<path d="M1558 1253 c-98 -98 -178 -183 -178 -190 0 -8 -13 -13 -34 -13 -46 0
-66 -29 -66 -96 0 -43 4 -56 23 -71 21 -17 43 -85 77 -233 36 -161 81 -291
110 -312 14 -10 68 -29 120 -42 52 -13 120 -30 150 -39 30 -8 80 -23 111 -31
75 -21 77 -21 82 17 3 27 4 26 5 -11 3 -64 35 -92 107 -92 47 0 60 4 79 25 13
14 27 36 30 49 3 13 87 103 185 201 99 98 185 190 191 206 15 36 9 91 -25 209
-14 52 -31 113 -36 135 -5 22 -17 70 -27 107 -16 55 -17 68 -6 72 24 9 54 70
54 109 0 123 -140 182 -225 94 -19 -20 -35 -32 -35 -28 0 5 -12 11 -27 15 -16
3 -59 15 -98 26 -149 43 -279 70 -333 70 l-56 0 -178 -177z m437 52 c28 -8 82
-23 120 -34 125 -35 123 -35 128 -4 3 19 4 14 6 -15 1 -47 27 -102 48 -102 7
0 13 -4 13 -9 0 -5 13 -12 28 -16 25 -5 29 -12 44 -78 8 -40 25 -108 38 -152
12 -44 26 -96 30 -115 4 -19 11 -43 15 -52 6 -16 4 -17 -47 -3 -29 9 -80 22
-113 31 -81 21 -199 52 -261 70 -28 8 -58 14 -67 14 -11 0 -20 19 -31 68 -9
37 -35 137 -57 222 -23 85 -43 169 -46 187 l-5 32 53 -16 c30 -8 77 -21 104
-28z m-224 -12 c6 -16 15 -50 20 -78 5 -27 16 -70 23 -95 8 -25 21 -72 30
-105 8 -33 22 -89 31 -123 9 -35 15 -65 13 -67 -2 -2 -84 -85 -183 -185 l-180
-181 -17 38 c-9 21 -17 47 -17 57 -1 18 -8 47 -47 184 -35 120 -35 123 -7 156
22 26 25 37 20 78 l-6 48 147 150 c81 82 150 149 155 149 4 1 12 -11 18 -26z
m268 -549 c134 -38 193 -54 299 -80 l114 -27 -156 -156 c-142 -142 -158 -155
-176 -143 -11 6 -38 12 -61 12 -31 0 -47 -6 -67 -27 l-27 -28 -145 38 c-80 20
-166 43 -193 50 l-47 13 181 182 c117 117 189 182 202 182 11 0 45 -7 76 -16z"/>
<path d="M1924 709 c-49 -24 -69 -103 -37 -149 24 -35 33 -40 80 -40 54 0 73
8 73 32 0 11 -5 16 -11 13 -7 -5 -9 13 -7 52 3 51 5 58 23 56 17 -1 15 3 -10
23 -32 25 -75 30 -111 13z"/>
<path d="M2767 1094 c-4 -4 -7 -88 -7 -186 l0 -179 33 3 32 3 3 72 3 73 33
-33 c106 -104 126 -118 164 -115 25 2 38 8 40 19 3 18 -91 119 -111 119 -7 0
-20 11 -29 24 -16 22 -15 24 20 57 20 20 54 48 75 63 28 21 37 36 37 57 0 27
-3 29 -38 29 -33 0 -46 -9 -114 -75 l-77 -74 -3 72 c-3 69 -4 72 -28 75 -14 2
-29 0 -33 -4z"/>
<path d="M3084 1087 c-2 -7 -3 -89 -2 -182 l3 -170 28 -3 27 -3 0 185 0 186
-25 0 c-14 0 -28 -6 -31 -13z"/>
<path d="M3297 1094 c-4 -4 -7 -38 -7 -76 l0 -68 -70 0 -70 0 0 -34 c0 -40 11
-46 86 -46 l54 0 0 -54 c0 -30 3 -61 6 -70 7 -19 45 -21 62 -4 9 9 12 9 12 0
0 -7 14 -12 34 -12 36 0 37 1 84 110 l11 25 0 -25 c1 -24 3 -25 63 -22 l63 3
20 -43 c16 -34 26 -44 49 -46 16 -2 33 2 38 10 8 10 11 10 15 0 7 -18 320 -16
339 2 7 7 19 28 27 47 l14 34 71 -3 c63 -3 72 -6 78 -25 18 -58 71 -86 102
-55 9 9 12 9 12 0 0 -7 13 -12 30 -12 l30 0 0 105 c0 63 4 105 10 105 6 0 10
-6 10 -12 0 -7 20 -34 43 -59 23 -25 60 -67 81 -92 41 -49 62 -58 72 -32 4 8
10 15 15 15 5 0 9 -7 9 -15 0 -10 10 -15 34 -15 31 0 35 4 64 63 18 34 32 54
32 45 0 -15 10 -18 61 -18 58 0 60 -1 70 -30 6 -16 15 -30 20 -30 5 0 9 -7 9
-15 0 -10 11 -15 35 -15 30 0 35 3 35 23 -1 31 -27 101 -40 105 -5 2 -10 9
-10 15 0 7 -14 39 -30 72 -16 33 -30 66 -30 73 0 6 -4 12 -8 12 -5 0 -16 16
-25 35 -17 35 -57 50 -57 21 0 -8 -4 -16 -8 -18 -4 -1 -40 -68 -80 -148 l-72
-145 0 158 0 157 -25 6 c-44 11 -54 -9 -57 -109 l-3 -92 -20 24 c-11 14 -35
41 -52 60 -18 20 -50 56 -72 80 -34 39 -41 43 -55 32 -13 -11 -16 -39 -16
-173 0 -147 -9 -192 -23 -119 -3 16 -12 35 -20 43 -8 7 -20 31 -27 53 -7 22
-19 44 -26 48 -8 4 -14 16 -14 25 0 9 -7 28 -15 42 -8 14 -21 40 -30 58 -16
34 -38 41 -60 19 -12 -13 -125 -240 -125 -253 0 -3 -7 -12 -15 -20 -8 -9 -15
-11 -15 -5 0 7 -30 11 -80 11 -44 0 -80 3 -80 8 0 4 8 15 18 24 9 9 28 31 42
49 14 17 30 37 35 43 48 54 65 81 65 107 0 19 -5 29 -15 29 -8 0 -15 5 -15 10
0 7 -43 10 -122 8 l-123 -3 0 -45 0 -45 73 -5 73 -5 -45 -50 c-25 -27 -46 -53
-46 -56 0 -4 -17 -24 -38 -46 -30 -33 -39 -38 -50 -27 -6 7 -12 16 -12 19 0
10 -73 159 -80 165 -4 3 -10 17 -13 31 -8 33 -40 69 -61 69 -11 0 -24 -15 -33
-40 -9 -22 -20 -40 -25 -40 -4 0 -8 -4 -8 -10 0 -16 -104 -230 -112 -230 -4 0
-9 71 -10 158 l-3 157 -25 3 c-14 2 -29 0 -33 -4z m926 -176 c5 -15 1 -18 -23
-18 -28 0 -29 1 -19 30 9 23 13 27 23 17 7 -6 15 -20 19 -29z m-653 -5 c0 -7
-11 -13 -25 -13 -19 0 -23 4 -18 18 13 35 42 32 43 -5z m1316 20 c20 -27 17
-33 -16 -33 -28 0 -29 1 -18 25 13 30 17 30 34 8z"/>
<path d="M5070 916 l0 -186 30 0 30 0 0 82 c0 64 3 79 12 70 7 -7 39 -12 75
-12 l63 0 0 -70 0 -70 30 0 30 0 0 185 0 185 -30 0 -30 0 0 -75 0 -75 -75 0
-74 0 -3 73 c-3 70 -4 72 -30 75 l-28 3 0 -185z"/>
<path d="M2987 623 c-4 -3 -7 -31 -8 -62 0 -44 -2 -51 -9 -33 -13 31 -78 31
-104 0 -24 -27 -31 -104 -14 -138 33 -62 118 -62 118 0 0 30 -1 31 -34 25 -20
-4 -36 -2 -40 4 -5 7 8 11 38 11 44 0 46 -1 46 -29 0 -32 22 -56 45 -47 8 3
15 13 15 23 0 14 3 14 20 -5 23 -24 45 -28 56 -11 5 8 9 7 14 -1 4 -7 15 -10
24 -7 12 5 16 21 16 65 0 40 5 64 14 71 22 18 36 -16 36 -84 0 -48 3 -56 18
-53 11 2 19 16 23 38 4 19 7 27 8 17 2 -30 38 -60 72 -60 48 0 79 43 79 111 0
28 -4 52 -9 52 -5 0 -11 9 -14 20 -4 16 -14 20 -49 20 -45 0 -71 -18 -81 -57
-4 -15 -5 -15 -6 4 -2 36 -28 53 -81 53 -56 0 -60 -7 -60 -105 l0 -59 -24 34
c-23 35 -24 35 -5 62 11 14 19 36 19 47 0 30 -45 29 -56 -1 -6 -17 -9 -7 -11
40 -4 57 -6 62 -27 62 -12 0 -26 -3 -29 -7z m-62 -133 c3 -5 -1 -10 -10 -10
-9 0 -13 5 -10 10 3 6 8 10 10 10 2 0 7 -4 10 -10z m439 -20 c8 -16 10 -30 5
-30 -5 0 -9 -7 -9 -15 0 -8 -9 -15 -19 -15 -33 0 -44 62 -13 79 9 6 18 11 19
11 1 0 8 -13 17 -30z"/>
<path d="M3432 493 c3 -115 6 -138 18 -138 12 0 15 23 18 138 2 132 2 137 -18
137 -20 0 -20 -5 -18 -137z"/>
<path d="M3822 617 c-7 -8 -10 -61 -9 -137 2 -104 5 -125 17 -125 13 0 15 23
17 138 2 132 -2 152 -25 124z"/>
<path d="M3952 618 c-7 -7 -12 -19 -12 -28 0 -9 5 -21 12 -28 9 -9 9 -12 0
-12 -8 0 -12 -26 -12 -88 0 -87 8 -112 37 -112 11 0 13 28 12 127 -1 153 -6
172 -37 141z"/>
<path d="M4260 590 c0 -38 -1 -40 -32 -40 -61 0 -94 -73 -72 -156 8 -28 59
-58 80 -46 9 5 25 7 35 5 18 -5 19 3 19 136 0 119 -2 141 -15 141 -11 0 -15
-11 -15 -40z m0 -137 c0 -17 -24 -43 -39 -43 -14 0 -29 32 -23 50 11 34 24 41
43 24 11 -10 19 -23 19 -31z"/>
<path d="M4882 618 c-16 -16 -15 -55 1 -61 10 -4 10 -6 0 -6 -9 -1 -13 -19
-13 -56 l0 -55 -20 20 c-11 11 -25 20 -31 20 -5 0 -7 5 -4 10 5 8 11 8 19 1
17 -14 26 -4 26 31 0 26 -3 28 -40 28 -29 0 -42 -5 -50 -20 -6 -11 -15 -20
-19 -20 -5 0 -11 9 -14 20 -4 16 -14 20 -44 20 -37 0 -62 -17 -76 -51 -4 -10
-6 -10 -6 3 -2 32 -30 48 -87 48 l-55 0 3 -97 c3 -90 5 -98 23 -98 17 0 20 8
23 60 5 105 42 114 42 10 0 -35 4 -66 9 -69 18 -12 41 7 41 33 l0 26 13 -25
c31 -62 117 -62 117 0 0 30 -1 31 -34 25 -20 -4 -36 -2 -40 4 -5 7 8 11 38 11
41 0 46 2 46 23 0 22 0 22 23 -5 12 -14 29 -29 37 -32 8 -3 -2 -3 -22 0 -36 6
-38 5 -38 -20 0 -39 41 -62 80 -46 17 7 30 17 30 22 0 5 7 2 16 -7 32 -31 39
-12 41 106 3 151 -3 179 -35 147z m-187 -128 c3 -5 -1 -10 -10 -10 -9 0 -13 5
-10 10 3 6 8 10 10 10 2 0 7 -4 10 -10z"/>
<path d="M2783 593 c-7 -2 -13 -13 -13 -24 0 -10 -4 -19 -10 -19 -5 0 -10 -13
-10 -30 0 -16 5 -30 10 -30 6 0 10 -26 10 -59 0 -50 4 -62 21 -75 12 -8 28
-12 35 -9 19 7 18 63 -1 63 -11 0 -15 11 -15 40 0 29 4 40 15 40 10 0 15 10
15 30 0 20 -5 30 -15 30 -9 0 -15 9 -15 25 0 25 -4 28 -27 18z"/>
<path d="M3508 525 c-6 -14 -15 -25 -20 -25 -4 0 -8 -18 -8 -39 0 -42 31 -105
56 -115 75 -29 139 110 81 177 -32 37 -92 38 -109 2z m80 -71 c2 -21 -2 -33
-12 -37 -26 -10 -46 4 -46 32 0 34 8 43 35 39 14 -2 21 -12 23 -34z"/>
<path d="M3668 530 c-13 -15 -18 -38 -18 -84 0 -58 3 -67 27 -86 15 -11 33
-18 40 -15 8 2 11 1 8 -4 -3 -6 -21 -7 -40 -4 -30 5 -35 3 -35 -14 0 -26 19
-43 50 -43 47 0 70 12 76 39 4 14 11 31 16 38 5 6 8 51 6 100 l-3 88 -55 3
c-45 2 -58 -1 -72 -18z m67 -80 c0 -24 -5 -36 -17 -38 -19 -4 -32 29 -23 59
11 34 40 19 40 -21z"/>
<path d="M4012 453 c3 -90 5 -98 23 -98 18 0 20 8 23 62 2 37 8 66 17 73 17
14 23 -6 27 -85 2 -37 7 -50 18 -50 12 0 16 18 18 89 3 103 2 106 -76 106
l-53 0 3 -97z"/>
<path d="M4344 542 c-20 -13 -34 -50 -34 -89 0 -60 9 -79 45 -99 31 -17 34
-17 60 0 45 30 60 109 30 166 -13 25 -22 30 -53 30 -20 0 -42 -4 -48 -8z m66
-94 c0 -35 -27 -49 -46 -24 -13 18 -10 40 9 64 15 19 37 -5 37 -40z"/>
<path d="M4947 543 c-11 -11 -8 -48 5 -61 9 -9 9 -12 0 -12 -8 0 -12 -19 -12
-55 0 -44 4 -56 20 -65 12 -7 27 -7 38 -2 9 5 23 7 31 4 7 -2 17 2 22 9 13 20
11 117 -3 156 -11 30 -16 33 -53 33 -23 0 -45 -3 -48 -7z m58 -53 c3 -6 -4
-10 -17 -10 -18 0 -20 2 -8 10 19 12 18 12 25 0z m-5 -70 c0 -5 -5 -10 -11
-10 -5 0 -7 5 -4 10 3 6 8 10 11 10 2 0 4 -4 4 -10z"/>
</g>
</svg>
